<?xml version="1.0" encoding="UTF-8"?>
<svg xmlns="http://www.w3.org/2000/svg" xmlns:xlink="http://www.w3.org/1999/xlink" width="37.5pt" height="37.499999pt" viewBox="0 0 37.5 37.499999" version="1.2">
<defs>
<clipPath id="clip1">
  <path d="M 3.75 2.269531 L 32 2.269531 L 32 27 L 3.75 27 Z M 3.75 2.269531 "/>
</clipPath>
<clipPath id="clip2">
  <path d="M 13 16 L 35.25 16 L 35.25 33.769531 L 13 33.769531 Z M 13 16 "/>
</clipPath>
</defs>
<g id="surface1">
<g clip-path="url(#clip1)" clip-rule="nonzero">
<path style=" stroke:none;fill-rule:nonzero;fill:rgb(100%,53.729248%,42.749023%);fill-opacity:1;" d="M 17.53125 24.710938 C 25.128906 24.710938 31.3125 19.679688 31.3125 13.492188 C 31.3125 7.304688 25.128906 2.269531 17.53125 2.269531 C 9.933594 2.269531 3.75 7.304688 3.75 13.492188 C 3.75 16.625 5.324219 19.5625 8.105469 21.679688 C 7.183594 23.113281 5.996094 24.566406 4.496094 24.9375 C 4.023438 25.054688 3.703125 25.503906 3.753906 25.988281 C 3.804688 26.476562 4.203125 26.855469 4.691406 26.875 C 4.714844 26.875 4.800781 26.878906 4.941406 26.878906 C 5.957031 26.878906 9.886719 26.714844 14.347656 24.402344 C 15.371094 24.609375 16.4375 24.710938 17.53125 24.710938 Z M 17.53125 24.710938 "/>
</g>
<g clip-path="url(#clip2)" clip-rule="nonzero">
<path style=" stroke:none;fill-rule:nonzero;fill:rgb(100%,53.729248%,42.749023%);fill-opacity:1;" d="M 34.5 31.753906 C 33.246094 31.445312 32.300781 30.527344 31.636719 29.617188 C 33.945312 27.808594 35.25 25.320312 35.25 22.667969 C 35.25 20.449219 34.316406 18.40625 32.765625 16.773438 C 31.015625 22.460938 24.859375 26.679688 17.53125 26.679688 C 16.554688 26.679688 15.585938 26.605469 14.648438 26.457031 C 14.089844 26.726562 13.539062 26.964844 13.003906 27.179688 C 14.988281 30.230469 18.917969 32.316406 23.4375 32.316406 C 24.359375 32.316406 25.257812 32.230469 26.105469 32.066406 C 28.933594 33.503906 31.507812 33.769531 33.023438 33.769531 C 33.855469 33.769531 34.367188 33.691406 34.425781 33.679688 C 34.886719 33.605469 35.230469 33.214844 35.25 32.75 C 35.269531 32.28125 34.957031 31.863281 34.5 31.753906 Z M 34.5 31.753906 "/>
</g>
<path style=" stroke:none;fill-rule:nonzero;fill:rgb(100%,100%,100%);fill-opacity:1;" d="M 9 10.800781 C 8.6875 10.800781 8.386719 10.859375 8.097656 10.980469 C 7.804688 11.101562 7.550781 11.269531 7.328125 11.492188 C 7.109375 11.714844 6.9375 11.96875 6.816406 12.257812 C 6.699219 12.546875 6.636719 12.847656 6.636719 13.164062 C 6.636719 13.476562 6.699219 13.777344 6.816406 14.066406 C 6.9375 14.355469 7.109375 14.613281 7.328125 14.832031 C 7.550781 15.054688 7.804688 15.226562 8.097656 15.34375 C 8.386719 15.464844 8.6875 15.523438 9 15.523438 C 9.3125 15.523438 9.613281 15.464844 9.902344 15.34375 C 10.195312 15.226562 10.449219 15.054688 10.671875 14.832031 C 10.890625 14.613281 11.0625 14.355469 11.183594 14.066406 C 11.300781 13.777344 11.363281 13.476562 11.363281 13.164062 C 11.363281 12.847656 11.300781 12.546875 11.183594 12.257812 C 11.0625 11.96875 10.890625 11.714844 10.671875 11.492188 C 10.449219 11.269531 10.195312 11.101562 9.902344 10.980469 C 9.613281 10.859375 9.3125 10.800781 9 10.800781 Z M 9 10.800781 "/>
<path style=" stroke:none;fill-rule:nonzero;fill:rgb(100%,100%,100%);fill-opacity:1;" d="M 16.386719 10.800781 C 16.074219 10.800781 15.773438 10.859375 15.484375 10.980469 C 15.195312 11.101562 14.9375 11.269531 14.71875 11.492188 C 14.496094 11.714844 14.324219 11.96875 14.203125 12.257812 C 14.085938 12.546875 14.023438 12.847656 14.023438 13.164062 C 14.023438 13.476562 14.085938 13.777344 14.203125 14.066406 C 14.324219 14.355469 14.496094 14.613281 14.71875 14.832031 C 14.9375 15.054688 15.195312 15.226562 15.484375 15.34375 C 15.773438 15.464844 16.074219 15.523438 16.386719 15.523438 C 16.699219 15.523438 17.003906 15.464844 17.292969 15.34375 C 17.582031 15.226562 17.835938 15.054688 18.058594 14.832031 C 18.28125 14.613281 18.449219 14.355469 18.570312 14.066406 C 18.691406 13.777344 18.75 13.476562 18.75 13.164062 C 18.75 12.847656 18.691406 12.546875 18.570312 12.257812 C 18.449219 11.96875 18.28125 11.714844 18.058594 11.492188 C 17.835938 11.269531 17.582031 11.101562 17.292969 10.980469 C 17.003906 10.859375 16.699219 10.800781 16.386719 10.800781 Z M 16.386719 10.800781 "/>
<path style=" stroke:none;fill-rule:nonzero;fill:rgb(100%,100%,100%);fill-opacity:1;" d="M 24 10.800781 C 23.6875 10.800781 23.386719 10.859375 23.097656 10.980469 C 22.804688 11.101562 22.550781 11.269531 22.328125 11.492188 C 22.109375 11.714844 21.9375 11.96875 21.816406 12.257812 C 21.699219 12.546875 21.636719 12.847656 21.636719 13.164062 C 21.636719 13.476562 21.699219 13.777344 21.816406 14.066406 C 21.9375 14.355469 22.109375 14.613281 22.328125 14.832031 C 22.550781 15.054688 22.804688 15.226562 23.097656 15.34375 C 23.386719 15.464844 23.6875 15.523438 24 15.523438 C 24.3125 15.523438 24.613281 15.464844 24.902344 15.34375 C 25.195312 15.226562 25.449219 15.054688 25.671875 14.832031 C 25.890625 14.613281 26.0625 14.355469 26.183594 14.066406 C 26.300781 13.777344 26.363281 13.476562 26.363281 13.164062 C 26.363281 12.847656 26.300781 12.546875 26.183594 12.257812 C 26.0625 11.96875 25.890625 11.714844 25.671875 11.492188 C 25.449219 11.269531 25.195312 11.101562 24.902344 10.980469 C 24.613281 10.859375 24.3125 10.800781 24 10.800781 Z M 24 10.800781 "/>
</g>
</svg>
