<?xml version="1.0" encoding="UTF-8"?>
<svg xmlns="http://www.w3.org/2000/svg" xmlns:xlink="http://www.w3.org/1999/xlink" width="45pt" height="44.999999pt" viewBox="0 0 45 44.999999" version="1.2">
<defs>
<clipPath id="clip1">
  <path d="M 1.089844 3 L 43.839844 3 L 43.839844 41.988281 L 1.089844 41.988281 Z M 1.089844 3 "/>
</clipPath>
<clipPath id="clip2">
  <path d="M 1.089844 2.988281 L 43.839844 2.988281 L 43.839844 41.988281 L 1.089844 41.988281 Z M 1.089844 2.988281 "/>
</clipPath>
<clipPath id="clip3">
  <path d="M 10.484375 13.199219 L 34.484375 13.199219 L 34.484375 37.949219 L 10.484375 37.949219 Z M 10.484375 13.199219 "/>
</clipPath>
</defs>
<g id="surface1">
<g clip-path="url(#clip1)" clip-rule="nonzero">
<path style=" stroke:none;fill-rule:nonzero;fill:rgb(100%,100%,100%);fill-opacity:1;" d="M 5.246094 17.988281 C 5.414062 17.988281 5.546875 18.121094 5.546875 18.289062 L 5.546875 39.527344 C 5.546875 40 5.933594 40.382812 6.402344 40.382812 L 38.523438 40.382812 C 38.996094 40.382812 39.378906 40 39.378906 39.527344 L 39.378906 18.289062 C 39.378906 18.121094 39.515625 17.988281 39.683594 17.988281 L 41.660156 17.988281 L 23.539062 4.921875 C 23.265625 4.722656 22.875 4.613281 22.464844 4.613281 C 22.054688 4.613281 21.664062 4.722656 21.390625 4.921875 L 11.253906 12.230469 C 11.199219 12.269531 11.136719 12.289062 11.074219 12.289062 C 11.027344 12.289062 10.980469 12.277344 10.9375 12.253906 C 10.835938 12.203125 10.773438 12.097656 10.773438 11.984375 L 10.773438 9.582031 C 10.773438 9.414062 10.910156 9.28125 11.074219 9.28125 L 11.351562 9.28125 L 11.351562 8.210938 L 7.449219 8.210938 L 7.449219 9.28125 L 7.722656 9.28125 C 7.890625 9.28125 8.023438 9.414062 8.023438 9.582031 L 8.023438 14.402344 C 8.023438 14.5 7.976562 14.59375 7.898438 14.648438 L 3.269531 17.988281 Z M 6.402344 41.699219 C 5.207031 41.699219 4.234375 40.722656 4.234375 39.527344 L 4.234375 19.300781 L 3.035156 19.300781 C 2.027344 19.300781 1.679688 18.886719 1.570312 18.535156 C 1.457031 18.1875 1.496094 17.648438 2.3125 17.058594 L 6.710938 13.886719 L 6.710938 10.46875 C 6.363281 10.285156 6.136719 9.917969 6.136719 9.511719 L 6.136719 7.980469 C 6.136719 7.382812 6.621094 6.898438 7.214844 6.898438 L 11.582031 6.898438 C 12.179688 6.898438 12.664062 7.382812 12.664062 7.980469 L 12.664062 9.511719 C 12.664062 9.539062 12.660156 9.570312 12.660156 9.597656 L 20.621094 3.855469 C 21.121094 3.496094 21.777344 3.296875 22.464844 3.296875 C 23.152344 3.296875 23.808594 3.496094 24.304688 3.855469 L 42.617188 17.058594 C 43.433594 17.648438 43.472656 18.1875 43.359375 18.535156 C 43.246094 18.886719 42.902344 19.300781 41.894531 19.300781 L 40.691406 19.300781 L 40.691406 39.527344 C 40.691406 40.722656 39.71875 41.699219 38.523438 41.699219 L 6.402344 41.699219 "/>
</g>
<g clip-path="url(#clip2)" clip-rule="nonzero">
<path style=" stroke:none;fill-rule:nonzero;fill:rgb(100%,100%,100%);fill-opacity:1;" d="M 11.074219 12.589844 C 11.199219 12.589844 11.324219 12.550781 11.429688 12.476562 L 21.566406 5.167969 C 21.785156 5.007812 22.121094 4.914062 22.464844 4.914062 C 22.808594 4.914062 23.144531 5.007812 23.363281 5.167969 L 40.71875 17.683594 L 39.683594 17.683594 C 39.347656 17.683594 39.078125 17.957031 39.078125 18.289062 L 39.078125 39.527344 C 39.078125 39.832031 38.832031 40.082031 38.523438 40.082031 L 6.402344 40.082031 C 6.097656 40.082031 5.851562 39.832031 5.851562 39.527344 L 5.851562 18.289062 C 5.851562 17.957031 5.578125 17.683594 5.246094 17.683594 L 4.207031 17.683594 L 8.074219 14.894531 C 8.234375 14.78125 8.328125 14.597656 8.328125 14.402344 L 8.328125 9.582031 C 8.328125 9.257812 8.070312 8.992188 7.75 8.976562 L 7.75 8.515625 L 11.046875 8.515625 L 11.046875 8.976562 C 10.726562 8.992188 10.46875 9.257812 10.46875 9.582031 L 10.46875 11.984375 C 10.46875 12.210938 10.597656 12.421875 10.800781 12.523438 C 10.886719 12.570312 10.980469 12.589844 11.074219 12.589844 Z M 22.464844 2.996094 C 21.714844 2.996094 20.996094 3.210938 20.445312 3.609375 L 12.964844 9.003906 L 12.964844 7.980469 C 12.964844 7.21875 12.34375 6.597656 11.582031 6.597656 L 7.214844 6.597656 C 6.453125 6.597656 5.832031 7.21875 5.832031 7.980469 L 5.832031 9.511719 C 5.832031 9.96875 6.054688 10.382812 6.410156 10.636719 L 6.410156 13.730469 L 2.136719 16.8125 C 1.117188 17.546875 1.164062 18.265625 1.28125 18.628906 C 1.398438 18.992188 1.78125 19.605469 3.035156 19.605469 L 3.933594 19.605469 L 3.933594 39.527344 C 3.933594 40.890625 5.042969 42 6.402344 42 L 38.523438 42 C 39.886719 42 40.996094 40.890625 40.996094 39.527344 L 40.996094 19.605469 L 41.894531 19.605469 C 43.148438 19.605469 43.53125 18.992188 43.648438 18.628906 C 43.765625 18.265625 43.808594 17.546875 42.792969 16.8125 L 24.484375 3.609375 C 23.933594 3.210938 23.214844 2.996094 22.464844 2.996094 Z M 11.074219 11.984375 L 11.074219 9.582031 L 11.582031 9.582031 C 11.621094 9.582031 11.652344 9.550781 11.652344 9.511719 L 11.652344 7.980469 C 11.652344 7.941406 11.621094 7.910156 11.582031 7.910156 L 7.214844 7.910156 C 7.175781 7.910156 7.144531 7.941406 7.144531 7.980469 L 7.144531 9.511719 C 7.144531 9.550781 7.175781 9.582031 7.214844 9.582031 L 7.722656 9.582031 L 7.722656 14.402344 L 2.902344 17.878906 C 2.671875 18.046875 2.585938 18.160156 2.550781 18.21875 C 2.609375 18.246094 2.75 18.289062 3.035156 18.289062 L 5.246094 18.289062 L 5.246094 39.527344 C 5.246094 40.167969 5.765625 40.6875 6.402344 40.6875 L 38.523438 40.6875 C 39.164062 40.6875 39.683594 40.167969 39.683594 39.527344 L 39.683594 18.289062 L 41.894531 18.289062 C 42.179688 18.289062 42.316406 18.246094 42.378906 18.21875 C 42.34375 18.160156 42.257812 18.046875 42.027344 17.878906 L 23.71875 4.675781 C 23.394531 4.441406 22.9375 4.308594 22.464844 4.308594 C 21.992188 4.308594 21.535156 4.441406 21.210938 4.675781 L 11.074219 11.984375 M 22.464844 3.601562 C 23.089844 3.601562 23.683594 3.777344 24.128906 4.101562 L 42.441406 17.304688 C 43.109375 17.789062 43.152344 18.191406 43.070312 18.445312 C 42.992188 18.695312 42.71875 18.996094 41.894531 18.996094 L 40.390625 18.996094 L 40.390625 39.527344 C 40.390625 40.558594 39.554688 41.394531 38.523438 41.394531 L 6.402344 41.394531 C 5.375 41.394531 4.539062 40.558594 4.539062 39.527344 L 4.539062 18.996094 L 3.035156 18.996094 C 2.210938 18.996094 1.9375 18.695312 1.855469 18.445312 C 1.773438 18.191406 1.820312 17.789062 2.488281 17.304688 L 7.015625 14.042969 L 7.015625 10.265625 C 6.683594 10.175781 6.4375 9.871094 6.4375 9.511719 L 6.4375 7.980469 C 6.4375 7.550781 6.785156 7.203125 7.214844 7.203125 L 11.582031 7.203125 C 12.011719 7.203125 12.359375 7.550781 12.359375 7.980469 L 12.359375 9.511719 C 12.359375 9.871094 12.113281 10.175781 11.78125 10.265625 L 11.78125 10.605469 L 20.800781 4.101562 C 21.246094 3.777344 21.839844 3.601562 22.464844 3.601562 "/>
</g>
<g clip-path="url(#clip3)" clip-rule="nonzero">
<path style=" stroke:none;fill-rule:nonzero;fill:rgb(100%,100%,100%);fill-opacity:1;" d="M 31.484375 19.765625 C 33.136719 19.765625 34.480469 18.40625 34.480469 16.734375 C 34.480469 15.0625 33.136719 13.707031 31.484375 13.707031 C 29.828125 13.707031 28.484375 15.0625 28.484375 16.734375 C 28.484375 17.199219 28.589844 17.632812 28.773438 18.027344 L 22.125 22.699219 C 21.582031 22.136719 20.824219 21.785156 19.988281 21.785156 C 19.707031 21.785156 19.4375 21.828125 19.179688 21.902344 L 17.699219 18.714844 C 18.476562 18.167969 18.988281 17.257812 18.988281 16.230469 C 18.988281 14.558594 17.640625 13.199219 15.988281 13.199219 C 14.332031 13.199219 12.988281 14.558594 12.988281 16.230469 C 12.988281 17.902344 14.332031 19.261719 15.988281 19.261719 C 16.269531 19.261719 16.539062 19.21875 16.792969 19.148438 L 18.277344 22.332031 C 17.496094 22.878906 16.988281 23.789062 16.988281 24.816406 C 16.988281 25.511719 17.222656 26.148438 17.609375 26.660156 L 15.132812 29.355469 C 14.660156 29.042969 14.097656 28.859375 13.488281 28.859375 C 11.835938 28.859375 10.488281 30.21875 10.488281 31.890625 C 10.488281 33.558594 11.835938 34.917969 13.488281 34.917969 C 15.144531 34.917969 16.488281 33.558594 16.488281 31.890625 C 16.488281 31.195312 16.253906 30.558594 15.863281 30.046875 L 18.34375 27.347656 C 18.8125 27.664062 19.378906 27.847656 19.988281 27.847656 C 20.246094 27.847656 20.5 27.8125 20.742188 27.746094 L 22.816406 32.402344 C 22.015625 32.945312 21.484375 33.871094 21.484375 34.917969 C 21.484375 36.589844 22.832031 37.949219 24.484375 37.949219 C 26.140625 37.949219 27.484375 36.589844 27.484375 34.917969 C 27.484375 33.246094 26.140625 31.890625 24.484375 31.890625 C 24.222656 31.890625 23.972656 31.925781 23.730469 31.988281 L 21.65625 27.335938 C 21.960938 27.128906 22.222656 26.863281 22.433594 26.5625 L 28.601562 29.539062 C 28.527344 29.804688 28.484375 30.085938 28.484375 30.375 C 28.484375 32.042969 29.828125 33.402344 31.484375 33.402344 C 33.136719 33.402344 34.480469 32.042969 34.480469 30.375 C 34.480469 28.703125 33.136719 27.34375 31.484375 27.34375 C 30.472656 27.34375 29.578125 27.851562 29.035156 28.628906 L 22.867188 25.652344 C 22.941406 25.386719 22.984375 25.105469 22.984375 24.816406 C 22.984375 24.355469 22.878906 23.917969 22.695312 23.527344 L 29.34375 18.855469 C 29.886719 19.417969 30.644531 19.765625 31.484375 19.765625 Z M 13.988281 16.230469 C 13.988281 15.117188 14.886719 14.210938 15.988281 14.210938 C 17.089844 14.210938 17.988281 15.117188 17.988281 16.230469 C 17.988281 17.34375 17.089844 18.25 15.988281 18.25 C 14.886719 18.25 13.988281 17.34375 13.988281 16.230469 Z M 26.484375 34.917969 C 26.484375 36.035156 25.585938 36.941406 24.484375 36.941406 C 23.382812 36.941406 22.484375 36.035156 22.484375 34.917969 C 22.484375 33.804688 23.382812 32.898438 24.484375 32.898438 C 25.585938 32.898438 26.484375 33.804688 26.484375 34.917969 Z M 31.484375 28.351562 C 32.585938 28.351562 33.480469 29.257812 33.480469 30.375 C 33.480469 31.488281 32.585938 32.394531 31.484375 32.394531 C 30.378906 32.394531 29.484375 31.488281 29.484375 30.375 C 29.484375 29.257812 30.378906 28.351562 31.484375 28.351562 Z M 13.488281 33.910156 C 12.386719 33.910156 11.488281 33.003906 11.488281 31.890625 C 11.488281 30.773438 12.386719 29.867188 13.488281 29.867188 C 14.589844 29.867188 15.488281 30.773438 15.488281 31.890625 C 15.488281 33.003906 14.589844 33.910156 13.488281 33.910156 Z M 19.988281 26.835938 C 18.882812 26.835938 17.988281 25.929688 17.988281 24.816406 C 17.988281 23.703125 18.882812 22.796875 19.988281 22.796875 C 21.089844 22.796875 21.984375 23.703125 21.984375 24.816406 C 21.984375 25.929688 21.089844 26.835938 19.988281 26.835938 Z M 31.484375 14.714844 C 32.585938 14.714844 33.480469 15.621094 33.480469 16.734375 C 33.480469 17.851562 32.585938 18.757812 31.484375 18.757812 C 30.378906 18.757812 29.484375 17.851562 29.484375 16.734375 C 29.484375 15.621094 30.378906 14.714844 31.484375 14.714844 Z M 31.484375 14.714844 "/>
</g>
</g>
</svg>
